<?xml version="1.0" encoding="UTF-8"?>
<!DOCTYPE svg PUBLIC "-//W3C//DTD SVG 1.1//EN" "http://www.w3.org/Graphics/SVG/1.1/DTD/svg11.dtd">
<!-- Creator: CorelDRAW X6 -->
<svg xmlns="http://www.w3.org/2000/svg" xml:space="preserve" width="80.602mm" height="16.9418mm" version="1.1" style="shape-rendering:geometricPrecision; text-rendering:geometricPrecision; image-rendering:optimizeQuality; fill-rule:evenodd; clip-rule:evenodd"
viewBox="0 0 5846 1229"
 xmlns:xlink="http://www.w3.org/1999/xlink">
 <defs>
  <style type="text/css">
  </style>
 </defs>
 <g id="Layer_x0020_1">
  <metadata id="CorelCorpID_0Corel-Layer"/>
  <g id="_774134256">
   <path fill="#D9DADA" class="fil0" d="M5364 740l-50 0c-22,1 -45,3 -67,8 -17,4 -34,11 -49,21 -12,8 -22,19 -29,32 -7,14 -10,29 -10,44 0,12 2,23 6,34 4,10 10,19 17,27 7,8 16,14 26,18 10,4 21,6 32,6 18,0 35,-3 51,-10 16,-7 29,-18 39,-31 12,-14 21,-30 26,-48 6,-20 9,-42 9,-63l0 -37zm-483 0l-50 0c-22,1 -45,3 -67,8 -17,4 -34,11 -49,21 -12,8 -22,19 -29,32 -7,14 -10,29 -10,44 0,12 2,23 6,34 4,10 10,19 17,27 7,8 16,14 26,18 10,4 21,6 32,6 18,0 35,-3 51,-10 16,-7 29,-18 39,-31 12,-14 21,-30 26,-48 6,-20 9,-42 9,-63l0 -37zm-913 0l-50 0c-22,1 -45,3 -67,8 -17,4 -34,11 -49,21 -12,8 -22,19 -29,32 -7,14 -10,29 -10,44 0,12 2,23 6,34 4,10 10,19 17,27 7,8 16,14 26,18 10,4 21,6 32,6 18,0 35,-3 51,-10 16,-7 29,-18 39,-31 12,-14 21,-30 26,-48 6,-20 9,-42 9,-63l0 -37zm-589 -202c-17,1 -33,5 -48,13 -17,9 -30,23 -41,38 -12,18 -21,40 -26,61 -7,26 -9,54 -9,81 0,26 2,53 9,79 6,22 14,43 26,62 11,15 24,29 40,39 15,9 32,13 50,13 17,0 34,-4 49,-13 16,-9 28,-23 38,-38 12,-18 20,-39 25,-60 6,-25 8,-52 8,-78 0,-28 -2,-55 -8,-82 -5,-22 -12,-43 -24,-62 -9,-15 -21,-30 -37,-39 -15,-9 -31,-13 -47,-13l-4 0 0 -1zm2277 0c12,-22 28,-47 46,-60 16,-12 35,-19 55,-19 32,0 61,12 87,29l3 2 -31 90 -4 -3c-18,-11 -37,-19 -58,-19 -17,0 -33,6 -46,16 -15,12 -24,28 -29,46 -10,33 -14,67 -14,102l0 276 -91 0 0 -528 82 0 0 66zm-285 385c-7,11 -15,21 -23,30 -11,12 -23,23 -38,31 -13,8 -28,14 -43,17 -16,3 -33,5 -49,5 -21,0 -41,-3 -61,-10 -19,-7 -35,-18 -48,-32 -14,-15 -24,-32 -31,-51 -7,-21 -10,-42 -10,-64 0,-26 4,-53 16,-77 11,-23 26,-42 47,-57 23,-17 49,-28 77,-35 33,-9 68,-12 103,-12l56 -1 0 -5c0,-18 -2,-36 -7,-53 -4,-15 -11,-28 -22,-40 -9,-11 -21,-19 -34,-24 -15,-6 -30,-8 -46,-8 -10,0 -20,1 -30,3 -11,2 -21,4 -31,8 -11,4 -22,8 -32,13 -11,6 -22,12 -33,20l-6 4 -1 -92 2 -1c12,-6 24,-11 36,-16 12,-5 25,-9 38,-12 13,-4 26,-6 40,-7 14,-1 29,-2 43,-2 26,0 52,4 76,14 22,10 40,24 55,43 16,20 26,44 33,69 8,30 11,61 11,92l0 0 0 328 -84 0 0 -76zm-483 0c-7,11 -15,21 -23,31 -11,12 -23,23 -38,31 -13,8 -28,14 -43,17 -16,3 -33,5 -49,5 -21,0 -41,-3 -61,-10 -19,-7 -35,-18 -48,-32 -14,-15 -24,-32 -31,-51 -7,-21 -10,-42 -10,-64 0,-26 4,-53 16,-77 11,-23 26,-42 47,-57 23,-17 49,-28 77,-35 33,-9 68,-12 103,-12l56 -1 0 -5c0,-18 -2,-36 -7,-53 -4,-15 -11,-28 -22,-40 -9,-11 -21,-19 -34,-24 -15,-6 -30,-8 -46,-8 -10,0 -20,1 -30,3 -11,2 -21,4 -31,8 -11,4 -22,8 -32,13 -11,6 -22,12 -33,20l-6 4 -1 -92 2 -1c12,-6 24,-11 36,-16 12,-5 25,-9 38,-12 13,-4 26,-6 40,-7 14,-1 29,-2 43,-2 26,0 52,4 76,14 22,10 40,24 55,43 16,20 26,44 33,69 8,30 11,61 11,92l0 0 0 328 -84 0 0 -76zm-631 -8l258 0 0 85 -364 0 0 -89 255 -360 -245 0 0 -84 354 0 0 87 -258 361zm-282 8c-7,11 -15,21 -23,31 -11,12 -23,23 -38,31 -13,8 -28,14 -43,17 -16,3 -33,5 -49,5 -21,0 -41,-3 -61,-10 -19,-7 -35,-18 -48,-32 -14,-15 -24,-32 -31,-51 -7,-21 -10,-42 -10,-64 0,-26 4,-53 16,-77 11,-23 26,-42 47,-57 23,-17 49,-28 77,-35 33,-9 68,-12 103,-12l56 -1 0 -5c0,-18 -2,-36 -7,-53 -4,-15 -11,-28 -22,-40 -9,-11 -21,-19 -34,-24 -15,-6 -30,-8 -46,-8 -10,0 -20,1 -30,3 -11,2 -21,4 -31,8 -11,4 -22,8 -32,13 -11,6 -22,12 -33,20l-6 4 -1 -92 2 -1c12,-6 24,-11 36,-16 12,-5 25,-9 38,-12 13,-4 26,-6 40,-7 14,-1 29,-2 43,-2 26,0 52,4 76,14 22,10 40,24 55,43 16,20 26,44 33,69 8,30 11,61 11,92l0 0 0 328 -84 0 0 -76zm-720 -383c6,-10 14,-20 22,-29 11,-12 23,-22 36,-31 13,-8 27,-14 42,-18 16,-4 33,-6 49,-6 28,0 55,6 79,19 25,13 45,33 61,56 18,26 31,55 39,86 9,36 13,73 13,110 0,38 -4,76 -13,113 -8,32 -21,63 -40,90 -16,24 -36,45 -62,58 -24,13 -51,19 -78,19 -17,0 -34,-2 -50,-6 -16,-4 -31,-12 -45,-22 -14,-10 -27,-23 -38,-36 -9,-11 -17,-23 -23,-36l0 93 -85 0 0 -790 93 0 0 331z"/>
   <path fill="#FEFEFE" class="fil1" d="M2557 687c-1,-21 -4,-43 -10,-63 -5,-18 -13,-35 -24,-49 -9,-13 -21,-23 -35,-30 -14,-7 -30,-10 -45,-10 -16,0 -31,3 -45,11 -14,7 -26,18 -36,31 -12,15 -20,32 -26,51 -6,20 -10,41 -13,62l234 -1zm-654 -148c-15,1 -30,5 -43,13 -16,9 -28,22 -37,37 -12,18 -19,39 -25,60 -6,25 -9,52 -9,79 0,26 2,52 9,78 5,21 13,41 25,59 10,15 22,29 38,37 15,8 31,12 47,12 18,0 35,-4 51,-12 16,-9 29,-22 39,-37 12,-18 20,-38 26,-59 6,-24 9,-50 9,-75 0,-27 -2,-54 -8,-81 -5,-21 -13,-42 -25,-60 -10,-15 -23,-29 -40,-37 -16,-9 -34,-12 -52,-12l-4 0 0 -1zm-404 201l-50 0c-22,1 -45,3 -67,8 -17,4 -34,11 -49,21 -12,8 -22,19 -29,32 -7,14 -10,29 -10,44 0,12 2,23 6,34 4,10 10,19 17,27 7,8 16,14 26,18 10,4 21,6 32,6 18,0 35,-3 51,-10 16,-7 29,-18 39,-31 12,-14 21,-30 26,-48 6,-20 9,-42 9,-63l0 -37zm-1329 -643l-73 73 138 138 73 -73 -138 -138zm2820 469c-9,-4 -18,-8 -28,-11 -9,-3 -19,-7 -29,-9 -9,-3 -19,-5 -29,-6 -10,-1 -20,-2 -30,-2 -10,0 -20,1 -30,4 -9,2 -16,6 -23,11 -6,5 -11,11 -15,18 -4,7 -5,15 -5,23 0,7 1,14 4,21 3,7 7,13 12,19 8,8 17,15 26,21 14,10 30,18 45,26 21,11 42,24 61,38 14,11 29,23 40,38 9,12 16,26 20,41 5,16 7,32 7,48 0,23 -4,45 -13,66 -9,20 -22,37 -39,51 -18,15 -38,25 -60,31 -25,7 -52,10 -78,10 -11,0 -21,-1 -32,-2 -10,-1 -21,-2 -31,-4 -10,-1 -20,-4 -30,-7 -10,-3 -21,-7 -30,-12l-2 -1 3 -93 6 4c10,7 20,12 31,16 10,4 20,8 30,11 10,3 20,5 30,7 10,2 19,3 29,3 12,0 25,-1 37,-5 10,-3 19,-8 27,-15 8,-6 14,-14 18,-23 4,-10 6,-20 6,-30 0,-8 -1,-15 -3,-23 -2,-7 -6,-14 -10,-20 -6,-8 -16,-15 -24,-21 -14,-10 -29,-19 -45,-28 -21,-12 -42,-25 -61,-39 -14,-11 -28,-23 -39,-36 -9,-12 -16,-25 -21,-39 -5,-14 -7,-30 -7,-45 0,-20 3,-40 12,-58 8,-18 20,-33 35,-45 16,-13 35,-23 55,-29 22,-7 46,-10 69,-10 9,0 19,0 28,1 10,1 19,2 29,3 10,1 20,4 29,6 10,3 19,6 29,9l3 1 -4 87 -5 -3zm-669 193c2,24 6,48 14,70 7,20 18,39 32,56 13,15 29,26 48,34 20,8 42,11 64,11 10,0 21,-1 31,-3 10,-2 20,-4 30,-7 11,-4 21,-8 32,-12 11,-5 22,-10 32,-17l6 -4 0 93 -2 1c-10,6 -21,10 -33,13 -12,3 -24,6 -36,9 -13,2 -25,4 -38,5 -14,1 -28,2 -42,2 -33,0 -66,-5 -96,-18 -29,-13 -53,-32 -73,-57 -22,-27 -36,-58 -46,-91 -11,-38 -15,-78 -15,-117 0,-38 4,-76 15,-112 10,-32 25,-62 45,-88 19,-24 42,-43 70,-57 28,-13 58,-19 88,-19 29,0 57,5 83,18 25,12 46,31 62,53 19,25 32,53 40,84 9,34 13,69 13,103l0 0 0 48 -326 0zm-284 146c-7,12 -14,23 -23,34 -11,13 -23,25 -37,34 -13,9 -28,16 -43,20 -15,4 -31,6 -47,6 -28,0 -54,-6 -79,-18 -25,-13 -46,-32 -63,-55 -18,-26 -31,-55 -40,-86 -10,-35 -14,-72 -14,-108 0,-38 4,-77 13,-114 8,-32 21,-62 41,-88 17,-23 37,-43 63,-57 25,-13 52,-19 80,-19 17,0 34,2 51,7 16,5 31,12 44,21 14,10 26,21 37,34 8,10 15,21 22,32l0 -82 86 0 0 469c0,42 -4,86 -14,127 -9,33 -22,65 -44,92 -19,25 -44,44 -73,56 -32,13 -67,18 -101,18 -14,0 -27,-1 -41,-2 -14,-1 -27,-3 -41,-6 -13,-3 -26,-6 -38,-11 -12,-4 -24,-9 -36,-15l-3 -1 7 -96 6 3c12,7 23,13 35,18 11,5 22,9 33,13 11,3 22,6 33,8 10,2 20,3 30,3 23,0 46,-4 67,-13 19,-8 36,-21 49,-37 15,-17 24,-38 30,-60 7,-26 10,-53 10,-80l0 -48zm-532 17c-7,11 -15,21 -23,30 -11,12 -23,23 -38,31 -13,8 -28,14 -43,17 -16,3 -33,5 -49,5 -21,0 -41,-3 -61,-10 -19,-7 -35,-18 -48,-32 -14,-15 -24,-32 -31,-51 -7,-21 -10,-42 -10,-64 0,-26 4,-53 16,-77 11,-23 26,-42 47,-57 23,-17 49,-28 77,-35 33,-9 68,-12 103,-12l56 -1 0 -5c0,-18 -2,-36 -7,-53 -4,-15 -11,-28 -22,-40 -9,-11 -21,-19 -34,-24 -15,-6 -30,-8 -46,-8 -10,0 -20,1 -30,3 -11,2 -21,4 -31,8 -11,4 -22,8 -32,13 -11,6 -22,12 -33,20l-6 4 -1 -92 2 -1c12,-6 24,-11 36,-16 12,-5 25,-9 38,-12 13,-4 26,-6 40,-7 14,-1 29,-2 43,-2 26,0 52,4 76,14 22,10 40,24 55,43 16,20 26,44 33,69 8,30 11,61 11,92l0 0 0 328 -84 0 0 -76zm-989 -373c6,-11 13,-22 21,-32 10,-13 23,-25 37,-34 13,-10 27,-17 42,-22 16,-5 32,-7 48,-7 16,0 32,2 47,8 14,5 28,13 39,23 12,11 23,23 31,37 8,13 14,27 19,41 7,-14 16,-28 26,-41 11,-14 23,-26 37,-37 13,-10 28,-17 44,-23 16,-5 33,-8 49,-8 23,0 46,4 66,15 20,10 35,25 47,44 14,21 23,46 29,71 7,31 9,63 9,95l0 320 -93 0 0 -299c0,-22 -1,-45 -5,-67 -3,-16 -8,-33 -16,-47 -7,-11 -15,-21 -26,-27 -11,-7 -24,-9 -37,-9 -17,0 -33,3 -48,12 -15,9 -26,21 -36,35 -11,17 -18,37 -23,57 -6,25 -8,51 -8,76l0 270 -94 0 0 -299c0,-23 -1,-46 -5,-69 -3,-16 -8,-33 -16,-46 -6,-11 -15,-21 -26,-27 -13,-7 -27,-9 -41,-9 -16,0 -31,4 -44,12 -15,9 -26,22 -35,36 -11,17 -18,37 -23,56 -6,25 -8,50 -8,75l0 270 -92 0 0 -533 85 0 0 84zm-319 -84l93 0 0 533 -93 0 0 -533zm-27 -467l235 235 -170 170 -235 -235 170 -170z"/>
  </g>
 </g>
</svg>
